<?xml version="1.0" encoding="UTF-8" standalone="no"?>
<!-- Created with Inkscape (http://www.inkscape.org/) -->

<svg
   xmlns:dc="http://purl.org/dc/elements/1.1/"
   xmlns:cc="http://creativecommons.org/ns#"
   xmlns:rdf="http://www.w3.org/1999/02/22-rdf-syntax-ns#"
   xmlns:svg="http://www.w3.org/2000/svg"
   xmlns="http://www.w3.org/2000/svg"
   xmlns:sodipodi="http://sodipodi.sourceforge.net/DTD/sodipodi-0.dtd"
   xmlns:inkscape="http://www.inkscape.org/namespaces/inkscape"
   width="92.925461mm"
   height="15.746975mm"
   viewBox="0 0 329.26325 55.796336"
   id="svg2"
   version="1.1"
   inkscape:version="0.91 r13725"
   sodipodi:docname="logo.svg">
  <defs
     id="defs4" />
  <sodipodi:namedview
     id="base"
     pagecolor="#ffffff"
     bordercolor="#666666"
     borderopacity="1.0"
     inkscape:pageopacity="0.0"
     inkscape:pageshadow="2"
     inkscape:zoom="0.60327149"
     inkscape:cx="354.60265"
     inkscape:cy="-572.96301"
     inkscape:document-units="px"
     inkscape:current-layer="layer1"
     showgrid="false"
     inkscape:window-width="1920"
     inkscape:window-height="1027"
     inkscape:window-x="-8"
     inkscape:window-y="-8"
     inkscape:window-maximized="1"
     fit-margin-top="0"
     fit-margin-left="0"
     fit-margin-right="0"
     fit-margin-bottom="0" />
  <metadata
     id="metadata7">
    <rdf:RDF>
      <cc:Work
         rdf:about="">
        <dc:format>image/svg+xml</dc:format>
        <dc:type
           rdf:resource="http://purl.org/dc/dcmitype/StillImage" />
        <dc:title></dc:title>
      </cc:Work>
    </rdf:RDF>
  </metadata>
  <g
     inkscape:label="Capa 1"
     inkscape:groupmode="layer"
     id="layer1"
     transform="translate(-28.971115,-22.148351)">
    <g
       id="g4274"
       transform="matrix(0.80797083,0,0,0.80797083,-96.224677,-360.04068)"
       inkscape:export-xdpi="90"
       inkscape:export-ydpi="90">
      <text
         inkscape:export-ydpi="90"
         inkscape:export-xdpi="90"
         sodipodi:linespacing="125%"
         id="text3336"
         y="541.29077"
         x="147.0323"
         style="font-style:normal;font-weight:normal;font-size:73.66118622px;line-height:125%;font-family:sans-serif;letter-spacing:0px;word-spacing:0px;opacity:1;fill:#1c305b;fill-opacity:0.55113639;stroke:none;stroke-width:2;stroke-linecap:butt;stroke-linejoin:miter;stroke-miterlimit:4;stroke-dasharray:none;stroke-opacity:0.40909095"
         xml:space="preserve"><tspan
           style="font-style:normal;font-variant:normal;font-weight:bold;font-stretch:normal;font-size:92.07648468px;font-family:Montserrat;-inkscape-font-specification:'Montserrat Bold';fill:#1c305b;fill-opacity:0.55113639;stroke:none;stroke-width:2;stroke-miterlimit:4;stroke-dasharray:none;stroke-opacity:0.40909095"
           y="541.29077"
           x="147.0323"
           id="tspan3338"
           sodipodi:role="line">Rez   </tspan></text>
      <g
         inkscape:export-ydpi="90"
         inkscape:export-xdpi="90"
         transform="matrix(0.12345104,0,0,0.12345104,324.8244,478.977)"
         id="g4207">
        <path
           inkscape:connector-curvature="0"
           style="fill:#ededed"
           d="M 252.062,0 C 113.034,0 0,113.034 0,252.062 0,391.09 113.034,504.124 252.062,504.124 391.09,504.124 504.124,391.09 504.124,252.062 504.124,113.034 391.089,0 252.062,0 Z"
           id="path4157" />
        <path
           inkscape:connector-curvature="0"
           style="fill:#3db39e"
           d="m 252.062,110.277 c 78.375,0 141.785,63.409 141.785,141.785 0,78.376 -63.409,141.785 -141.785,141.785 -78.376,0 -141.785,-63.409 -141.785,-141.785 0,-78.376 63.409,-141.785 141.785,-141.785 z"
           id="path4159" />
        <path
           inkscape:connector-curvature="0"
           style="fill:#9ed9cf"
           d="m 299.323,165.415 c 17.329,0 31.508,14.178 31.508,31.508 0,17.33 -14.178,31.508 -31.508,31.508 -17.329,0 -31.508,-14.178 -31.508,-31.508 0,-17.33 14.179,-31.508 31.508,-31.508 z"
           id="path4161" />
        <path
           inkscape:connector-curvature="0"
           style="fill:#324d5b"
           d="m 252.062,181.169 c 38.991,0 70.892,31.902 70.892,70.892 0,38.99 -31.902,70.892 -70.892,70.892 -38.99,0 -70.892,-31.508 -70.892,-70.892 0,-39.384 31.901,-70.892 70.892,-70.892 z"
           id="path4163" />
        <path
           inkscape:connector-curvature="0"
           style="fill:#99a6ad"
           d="m 270.572,183.532 c -1.969,3.938 -2.757,8.665 -2.757,13.391 0,17.329 14.178,31.508 31.508,31.508 6.302,0 12.603,-1.969 17.329,-5.12 -8.27,-19.299 -25.206,-33.871 -46.08,-39.779 z"
           id="path4165" />
        <path
           inkscape:connector-curvature="0"
           style="fill:#2b424d"
           d="m 263.877,311.138 c -38.991,0 -70.892,-31.902 -70.892,-70.892 0,-16.542 5.908,-31.902 15.36,-43.717 -16.542,12.997 -27.175,33.083 -27.175,55.532 0,38.991 31.902,70.892 70.892,70.892 22.449,0 42.535,-10.634 55.532,-27.175 -11.816,9.847 -27.176,15.36 -43.717,15.36 z"
           id="path4167" />
        <path
           inkscape:connector-curvature="0"
           style="fill:#37a18e"
           d="m 271.754,370.215 c -78.375,0 -141.785,-63.409 -141.785,-141.785 0,-28.751 8.665,-55.926 23.631,-78.375 -26.782,25.994 -43.323,61.834 -43.323,102.006 0,78.375 63.409,141.785 141.785,141.785 49.231,0 92.948,-25.206 118.154,-63.409 -25.601,24.418 -60.259,39.778 -98.462,39.778 z"
           id="path4169" />
        <g
           id="g4171" />
        <g
           id="g4173" />
        <g
           id="g4175" />
        <g
           id="g4177" />
        <g
           id="g4179" />
        <g
           id="g4181" />
        <g
           id="g4183" />
        <g
           id="g4185" />
        <g
           id="g4187" />
        <g
           id="g4189" />
        <g
           id="g4191" />
        <g
           id="g4193" />
        <g
           id="g4195" />
        <g
           id="g4197" />
        <g
           id="g4199" />
      </g>
      <a
         id="a4270">
        <text
           xml:space="preserve"
           style="font-style:normal;font-weight:normal;font-size:73.66118622px;line-height:125%;font-family:sans-serif;letter-spacing:0px;word-spacing:0px;opacity:1;fill:#1c305b;fill-opacity:0.55113639;stroke:none;stroke-width:2;stroke-linecap:butt;stroke-linejoin:miter;stroke-miterlimit:4;stroke-dasharray:none;stroke-opacity:0.40909095"
           x="389.44928"
           y="541.34406"
           id="text3336-1"
           sodipodi:linespacing="125%"
           inkscape:export-xdpi="90"
           inkscape:export-ydpi="90"><tspan
             sodipodi:role="line"
             id="tspan3338-5"
             x="389.44928"
             y="541.34406"
             style="font-style:normal;font-variant:normal;font-weight:bold;font-stretch:normal;font-size:92.07648468px;font-family:Montserrat;-inkscape-font-specification:'Montserrat Bold';fill:#1c305b;fill-opacity:0.55113639;stroke:none;stroke-width:2;stroke-miterlimit:4;stroke-dasharray:none;stroke-opacity:0.40909095">lver</tspan></text>
      </a>
    </g>
  </g>
</svg>
