<?xml version="1.0" encoding="utf-8"?>
<svg id="Layer_1" style="enable-background:new 0 0 504.124 504.124;" x="0px" y="0px" viewBox="0 0 504.124 504.124" xmlns="http://www.w3.org/2000/svg">
  <g id="layer1" transform="matrix(1.481201, 0, 0, 1.387548, -218.666977, -437.503418)">
    <g id="g4274" transform="matrix(0.80797083,0,0,0.80797083,29.755088,90.83427)">
      <text id="text3336" y="541.29077" x="147.0323" style="font-style: normal; font-weight: normal; font-size: 73.6612px; line-height: 125%; font-family: sans-serif; letter-spacing: 0px; word-spacing: 0px; opacity: 1; fill: rgb(28, 48, 91); fill-opacity: 0.551136; stroke: none; stroke-width: 2; stroke-linecap: butt; stroke-linejoin: miter; stroke-miterlimit: 4; stroke-dasharray: none; stroke-opacity: 0.409091; white-space: pre;"><tspan style="font-style:normal;font-variant:normal;font-weight:bold;font-stretch:normal;font-size:92.07648468px;font-family:Montserrat;-inkscape-font-specification:'Montserrat Bold';fill:#1c305b;fill-opacity:0.55113639;stroke:none;stroke-width:2;stroke-miterlimit:4;stroke-dasharray:none;stroke-opacity:0.40909095" y="541.29077" x="147.0323" id="tspan3338">Rez   </tspan></text>
      <g transform="matrix(0.12345104,0,0,0.12345104,324.8244,478.977)" id="g4207">
        <path style="fill:#ededed" d="M 252.062,0 C 113.034,0 0,113.034 0,252.062 0,391.09 113.034,504.124 252.062,504.124 391.09,504.124 504.124,391.09 504.124,252.062 504.124,113.034 391.089,0 252.062,0 Z" id="path4157"/>
        <path style="fill:#3db39e" d="m 252.062,110.277 c 78.375,0 141.785,63.409 141.785,141.785 0,78.376 -63.409,141.785 -141.785,141.785 -78.376,0 -141.785,-63.409 -141.785,-141.785 0,-78.376 63.409,-141.785 141.785,-141.785 z" id="path4159"/>
        <path style="fill:#9ed9cf" d="m 299.323,165.415 c 17.329,0 31.508,14.178 31.508,31.508 0,17.33 -14.178,31.508 -31.508,31.508 -17.329,0 -31.508,-14.178 -31.508,-31.508 0,-17.33 14.179,-31.508 31.508,-31.508 z" id="path4161"/>
        <path style="fill:#324d5b" d="m 252.062,181.169 c 38.991,0 70.892,31.902 70.892,70.892 0,38.99 -31.902,70.892 -70.892,70.892 -38.99,0 -70.892,-31.508 -70.892,-70.892 0,-39.384 31.901,-70.892 70.892,-70.892 z" id="path4163"/>
        <path style="fill:#99a6ad" d="m 270.572,183.532 c -1.969,3.938 -2.757,8.665 -2.757,13.391 0,17.329 14.178,31.508 31.508,31.508 6.302,0 12.603,-1.969 17.329,-5.12 -8.27,-19.299 -25.206,-33.871 -46.08,-39.779 z" id="path4165"/>
        <path style="fill:#2b424d" d="m 263.877,311.138 c -38.991,0 -70.892,-31.902 -70.892,-70.892 0,-16.542 5.908,-31.902 15.36,-43.717 -16.542,12.997 -27.175,33.083 -27.175,55.532 0,38.991 31.902,70.892 70.892,70.892 22.449,0 42.535,-10.634 55.532,-27.175 -11.816,9.847 -27.176,15.36 -43.717,15.36 z" id="path4167"/>
        <path style="fill:#37a18e" d="m 271.754,370.215 c -78.375,0 -141.785,-63.409 -141.785,-141.785 0,-28.751 8.665,-55.926 23.631,-78.375 -26.782,25.994 -43.323,61.834 -43.323,102.006 0,78.375 63.409,141.785 141.785,141.785 49.231,0 92.948,-25.206 118.154,-63.409 -25.601,24.418 -60.259,39.778 -98.462,39.778 z" id="path4169"/>
        <g id="g4171"/>
        <g id="g4173"/>
        <g id="g4175"/>
        <g id="g4177"/>
        <g id="g4179"/>
        <g id="g4181"/>
        <g id="g4183"/>
        <g id="g4185"/>
        <g id="g4187"/>
        <g id="g4189"/>
        <g id="g4191"/>
        <g id="g4193"/>
        <g id="g4195"/>
        <g id="g4197"/>
        <g id="g4199"/>
      </g>
      <a id="a4270">
        <text style="font-style: normal; font-weight: normal; font-size: 73.6612px; line-height: 125%; font-family: sans-serif; letter-spacing: 0px; word-spacing: 0px; opacity: 1; fill: rgb(28, 48, 91); fill-opacity: 0.551136; stroke: none; stroke-width: 2; stroke-linecap: butt; stroke-linejoin: miter; stroke-miterlimit: 4; stroke-dasharray: none; stroke-opacity: 0.409091; white-space: pre;" x="389.44928" y="541.34406" id="text3336-1"><tspan id="tspan3338-5" x="389.44928" y="541.34406" style="font-style:normal;font-variant:normal;font-weight:bold;font-stretch:normal;font-size:92.07648468px;font-family:Montserrat;-inkscape-font-specification:'Montserrat Bold';fill:#1c305b;fill-opacity:0.55113639;stroke:none;stroke-width:2;stroke-miterlimit:4;stroke-dasharray:none;stroke-opacity:0.40909095">lver</tspan></text>
      </a>
    </g>
  </g>
  <g/>
  <g/>
  <g/>
  <g/>
  <g/>
  <g/>
  <g/>
  <g/>
  <g/>
  <g/>
  <g/>
  <g/>
  <g/>
  <g/>
  <g/>
</svg>